<?xml version="1.0" encoding="UTF-8" standalone="no"?>
<!-- Created with Inkscape (http://www.inkscape.org/) -->

<svg
   xmlns:osb="http://www.openswatchbook.org/uri/2009/osb"
   xmlns:dc="http://purl.org/dc/elements/1.1/"
   xmlns:cc="http://creativecommons.org/ns#"
   xmlns:rdf="http://www.w3.org/1999/02/22-rdf-syntax-ns#"
   xmlns:svg="http://www.w3.org/2000/svg"
   xmlns="http://www.w3.org/2000/svg"
   xmlns:sodipodi="http://sodipodi.sourceforge.net/DTD/sodipodi-0.dtd"
   xmlns:inkscape="http://www.inkscape.org/namespaces/inkscape"
   width="1017.6151"
   height="442.32141"
   id="svg2"
   version="1.1"
   inkscape:version="0.48.5 r10040"
   sodipodi:docname="EuleroVenn_Bundles.svg">
  <defs
     id="defs4">
    <linearGradient
       id="linearGradient3881"
       osb:paint="gradient">
      <stop
         style="stop-color:#000000;stop-opacity:1;"
         offset="0"
         id="stop3883" />
      <stop
         style="stop-color:#000000;stop-opacity:0;"
         offset="1"
         id="stop3885" />
    </linearGradient>
  </defs>
  <sodipodi:namedview
     id="base"
     pagecolor="#ffffff"
     bordercolor="#666666"
     borderopacity="1.0"
     inkscape:pageopacity="0.0"
     inkscape:pageshadow="2"
     inkscape:zoom="0.7105424"
     inkscape:cx="588.5225"
     inkscape:cy="173.26309"
     inkscape:document-units="px"
     inkscape:current-layer="layer1"
     showgrid="false"
     inkscape:window-width="1080"
     inkscape:window-height="661"
     inkscape:window-x="-8"
     inkscape:window-y="-8"
     inkscape:window-maximized="1"
     fit-margin-left="5"
     fit-margin-top="5"
     fit-margin-bottom="5"
     fit-margin-right="5" />
  <metadata
     id="metadata7">
    <rdf:RDF>
      <cc:Work
         rdf:about="">
        <dc:format>image/svg+xml</dc:format>
        <dc:type
           rdf:resource="http://purl.org/dc/dcmitype/StillImage" />
        <dc:title />
      </cc:Work>
    </rdf:RDF>
  </metadata>
  <g
     inkscape:label="Layer 1"
     inkscape:groupmode="layer"
     id="layer1"
     transform="translate(-19.531793,-453.686)">
    <text
       xml:space="preserve"
       style="font-size:38.7050705px;font-style:normal;font-weight:normal;line-height:125%;letter-spacing:0px;word-spacing:0px;fill:#000000;fill-opacity:1;stroke:none;font-family:Sans"
       x="475.01648"
       y="486.39188"
       id="text3002"
       sodipodi:linespacing="125%"><tspan
         sodipodi:role="line"
         id="tspan3004"
         x="475.01648"
         y="486.39188">FB</tspan></text>
    <text
       xml:space="preserve"
       style="font-size:38.7050705px;font-style:normal;font-weight:normal;line-height:125%;letter-spacing:0px;word-spacing:0px;fill:#000000;fill-opacity:1;stroke:none;font-family:Sans"
       x="217.00287"
       y="534.55444"
       id="text3006"
       sodipodi:linespacing="125%"><tspan
         sodipodi:role="line"
         id="tspan3008"
         x="217.00287"
         y="534.55444">SM</tspan></text>
    <text
       xml:space="preserve"
       style="font-size:38.7050705px;font-style:normal;font-weight:normal;line-height:125%;letter-spacing:0px;word-spacing:0px;fill:#000000;fill-opacity:1;stroke:none;font-family:Sans"
       x="882.51624"
       y="553.07831"
       id="text3010"
       sodipodi:linespacing="125%"><tspan
         sodipodi:role="line"
         id="tspan3012"
         x="882.51624"
         y="553.07831">GB</tspan></text>
    <text
       xml:space="preserve"
       style="font-size:38.7050705px;font-style:normal;font-weight:normal;line-height:125%;letter-spacing:0px;word-spacing:0px;fill:#000000;fill-opacity:1;stroke:none;font-family:Sans"
       x="810.88647"
       y="620.77777"
       id="text3014"
       sodipodi:linespacing="125%"><tspan
         sodipodi:role="line"
         id="tspan3016"
         x="810.88647"
         y="620.77777">PB</tspan></text>
    <text
       xml:space="preserve"
       style="font-size:38.7050705px;font-style:normal;font-weight:normal;line-height:125%;letter-spacing:0px;word-spacing:0px;fill:#000000;fill-opacity:1;stroke:none;font-family:Sans"
       x="147.15576"
       y="603.81238"
       id="text3018"
       sodipodi:linespacing="125%"><tspan
         sodipodi:role="line"
         id="tspan3020"
         x="147.15576"
         y="603.81238">VB</tspan></text>
    <text
       xml:space="preserve"
       style="font-size:38.7050705px;font-style:normal;font-weight:normal;line-height:125%;letter-spacing:0px;word-spacing:0px;fill:#000000;fill-opacity:1;stroke:none;font-family:Sans"
       x="364.20935"
       y="673.92383"
       id="text3026"
       sodipodi:linespacing="125%"><tspan
         sodipodi:role="line"
         id="tspan3028"
         x="364.20935"
         y="673.92383">TB</tspan></text>
    <text
       xml:space="preserve"
       style="font-size:38.7050705px;font-style:normal;font-weight:normal;line-height:125%;letter-spacing:0px;word-spacing:0px;fill:#000000;fill-opacity:1;stroke:none;font-family:Sans"
       x="517.75244"
       y="733.25885"
       id="text3030"
       sodipodi:linespacing="125%"><tspan
         sodipodi:role="line"
         id="tspan3032"
         x="517.75244"
         y="733.25885">TTB</tspan></text>
    <rect
       id="rect3075"
       width="1005.6798"
       height="395.62088"
       x="25.49942"
       y="494.41891"
       style="fill:none;stroke:#000000;stroke-width:1.9352535;stroke-opacity:1" />
    <rect
       style="fill:none;stroke:#000000;stroke-width:1.88412094;stroke-opacity:1"
       id="rect3845"
       width="696.04382"
       height="332.61029"
       x="74.5513"
       y="532.46857"
       ry="91.304794"
       transform="matrix(0.99968553,0.02507673,-0.02732535,0.99962659,0,0)" />
    <rect
       style="fill:none;stroke:#0000e9;stroke-width:1.55312943;stroke-opacity:1"
       id="rect3845-5"
       width="542.89771"
       height="289.76907"
       x="-993.76776"
       y="593.98303"
       ry="79.544449"
       transform="matrix(-0.9996076,0.0280116,0.02446228,0.99970075,0,0)" />
    <path
       style="fill:none;stroke:#0000e9;stroke-width:1.6330694px;stroke-linecap:butt;stroke-linejoin:miter;stroke-opacity:1"
       d="m 861.20257,821.1429 c -60.00505,9.34042 -121.70727,6.70907 -182.49888,4.04843 -46.25623,-2.33707 -92.82485,-4.48408 -138.41681,-10.76135 -30.70177,-3.91927 -63.94967,-17.51154 -69.23642,-41.33968 -4.77216,-20.97468 11.62726,-40.93452 29.01733,-56.88484 29.33494,-25.11559 70.6908,-41.40651 113.62413,-51.74153 28.38915,-7.28765 58.1836,-11.46568 86.6727,-18.37415 55.0169,-10.31746 112.49027,-18.98449 169.43051,-12.01053 37.56193,3.92864 78.57746,15.02782 96.55085,40.66183 15.69745,21.58995 19.68074,47.33071 14.45368,71.12442 -0.87299,1.65777 -3.42217,12.7557 -4.97726,16.99745 -20.97387,34.12841 -68.22014,52.59058 -114.61983,58.27995 z"
       id="path3878"
       inkscape:connector-curvature="0"
       sodipodi:nodetypes="cccccccccccc" />
    <path
       style="fill:none;stroke:#000000;stroke-width:2.05546975px;stroke-linecap:butt;stroke-linejoin:miter;stroke-opacity:1"
       d="m 243.86386,848.57306 c 72.47993,12.25038 147.00983,8.79927 220.43984,5.30972 55.87277,-3.0652 112.12286,-5.88108 167.19325,-14.11398 37.08458,-5.14033 77.24463,-22.9672 83.63046,-54.21879 5.76429,-27.50926 -14.04452,-53.68746 -35.04993,-74.60702 -35.43358,-32.9402 -85.38722,-54.30647 -137.24625,-67.86131 -34.29117,-9.55808 -70.27981,-15.03774 -104.69171,-24.09847 -66.45472,-13.53182 -135.87663,-24.89903 -204.6546,-15.75237 -45.37094,5.1526 -94.91347,19.70965 -116.62348,53.3298 -18.960891,28.31616 -23.772301,62.07629 -17.458555,93.28281 1.054475,2.17419 4.133625,16.72965 6.012015,22.29289 25.33427,44.76093 82.4029,68.97486 138.44896,76.43672 z"
       id="path3878-1"
       inkscape:connector-curvature="0"
       sodipodi:nodetypes="cccccccccccc" />
    <path
       sodipodi:type="arc"
       style="fill:none;stroke:#000000;stroke-opacity:1"
       id="path5346"
       sodipodi:cx="331.88745"
       sodipodi:cy="566.72174"
       sodipodi:rx="66.178459"
       sodipodi:ry="44.782417"
       d="m 398.06591,566.72174 c 0,24.73265 -29.62911,44.78242 -66.17846,44.78242 -36.54935,0 -66.17846,-20.04977 -66.17846,-44.78242 0,-24.73265 29.62911,-44.78242 66.17846,-44.78242 36.54935,0 66.17846,20.04977 66.17846,44.78242 z"
       transform="matrix(1.9352534,0,0,1.9352534,-137.33584,-347.27882)" />
    <path
       sodipodi:type="arc"
       style="fill:none;stroke:#000000;stroke-opacity:1"
       id="path5348"
       sodipodi:cx="318.45273"
       sodipodi:cy="572.19519"
       sodipodi:rx="24.87912"
       sodipodi:ry="25.376701"
       d="m 343.33185,572.19519 c 0,14.01517 -11.13876,25.3767 -24.87912,25.3767 -13.74036,0 -24.87912,-11.36153 -24.87912,-25.3767 0,-14.01516 11.13876,-25.3767 24.87912,-25.3767 13.74036,0 24.87912,11.36154 24.87912,25.3767 z"
       transform="matrix(1.9352534,0,0,1.9352534,-137.33584,-347.27882)" />
  </g>
</svg>
