<?xml version="1.0" encoding="UTF-8" standalone="no"?>
<!-- Created with Inkscape (http://www.inkscape.org/) -->

<svg
   xmlns:dc="http://purl.org/dc/elements/1.1/"
   xmlns:cc="http://creativecommons.org/ns#"
   xmlns:rdf="http://www.w3.org/1999/02/22-rdf-syntax-ns#"
   xmlns:svg="http://www.w3.org/2000/svg"
   xmlns="http://www.w3.org/2000/svg"
   xmlns:xlink="http://www.w3.org/1999/xlink"
   xmlns:sodipodi="http://sodipodi.sourceforge.net/DTD/sodipodi-0.dtd"
   xmlns:inkscape="http://www.inkscape.org/namespaces/inkscape"
   width="1052.3622"
   height="744.09448"
   id="svg5358"
   version="1.1"
   inkscape:version="0.48.5 r10040"
   sodipodi:docname="New document 9">
  <defs
     id="defs5360">
    <pattern
       inkscape:collect="always"
       xlink:href="#Strips1_1"
       id="pattern5957"
       patternTransform="matrix(10,0,0,10,-7.420895,213.72177)" />
    <pattern
       inkscape:collect="always"
       xlink:href="#Strips1_1"
       id="pattern5955"
       patternTransform="matrix(10,0,0,10,-503.87876,-67.530144)" />
    <pattern
       inkscape:stockid="Stripes 1:1"
       id="Strips1_1"
       patternTransform="translate(0,0) scale(10,10)"
       height="1"
       width="2"
       patternUnits="userSpaceOnUse"
       inkscape:collect="always">
      <rect
         id="rect4612"
         height="2"
         width="1"
         y="-0.5"
         x="0"
         style="fill:black;stroke:none" />
    </pattern>
  </defs>
  <sodipodi:namedview
     id="base"
     pagecolor="#ffffff"
     bordercolor="#666666"
     borderopacity="1.0"
     inkscape:pageopacity="0.0"
     inkscape:pageshadow="2"
     inkscape:zoom="1.3475464"
     inkscape:cx="514.02353"
     inkscape:cy="701.94763"
     inkscape:document-units="px"
     inkscape:current-layer="layer1"
     showgrid="false"
     inkscape:window-width="1080"
     inkscape:window-height="661"
     inkscape:window-x="-8"
     inkscape:window-y="-8"
     inkscape:window-maximized="1" />
  <metadata
     id="metadata5363">
    <rdf:RDF>
      <cc:Work
         rdf:about="">
        <dc:format>image/svg+xml</dc:format>
        <dc:type
           rdf:resource="http://purl.org/dc/dcmitype/StillImage" />
        <dc:title></dc:title>
      </cc:Work>
    </rdf:RDF>
  </metadata>
  <g
     inkscape:label="Layer 1"
     inkscape:groupmode="layer"
     id="layer1"
     transform="translate(0,-308.2677)">
    <path
       style="fill:none;stroke:#000000;stroke-width:1px;stroke-linecap:butt;stroke-linejoin:miter;stroke-opacity:1"
       d="M 319.34375 272.8125 L 319.34375 421.0625 C 319.01237 422.90797 318.94333 424.8392 319.21875 426.84375 C 317.80255 434.71325 321.79924 440.87683 325.28125 446.09375 C 332.34232 455.46843 341.59102 462.71677 352 468.5 C 364.34789 474.58099 377.21265 479.3831 390.71875 483.28125 C 406.40515 486.59656 412.14078 487.7367 427.28125 490.53125 C 445.4542 491.72157 463.46218 494.22589 481.8125 493.5625 C 498.21916 494.18007 514.28119 491.93804 530.34375 489.53125 C 547.10932 487.25684 563.64508 483.31881 579.8125 478.4375 C 593.4711 473.78613 610.70669 471.28352 622.84375 467.3125 C 634.03251 461.72989 646.996 462.65652 658.625 458.21875 C 673.99219 456.05048 690.21278 454.41015 705.09375 460.1875 C 719.96108 465.89824 734.54458 472.28048 750.625 471.4375 C 778.33082 467.94734 793.74221 448.80615 797.5 428.5 L 797.5625 428.5 L 797.5625 428.1875 C 797.5719 428.13502 797.58451 428.08374 797.59375 428.03125 C 797.59009 427.80762 797.56992 427.57092 797.5625 427.34375 L 797.5625 272.8125 L 319.34375 272.8125 z "
       transform="translate(0,308.2677)"
       id="path5366" />
    <path
       style="fill:none;stroke:#000000;stroke-width:1px;stroke-linecap:butt;stroke-linejoin:miter;stroke-opacity:1"
       d="m 287.38359,420.79914 c 5.31018,-11.79285 0.36405,-21.93557 -8.08122,-28.28427 -9.02328,-3.85059 -14.24861,-9.50035 -25.25382,-10.10153 -7.32773,-2.55066 -16.03653,-1.96507 -24.24366,-2.0203 -9.45829,-1.31589 -20.11291,-0.0172 -29.7995,1.01015 -16.11385,2.91342 -33.23161,5.58543 -48.12046,9.96691 -14.07373,2.63571 -28.13111,4.53269 -42.27972,6.74129 -2.97058,-0.0575 -17.190135,1.64299 -24.301755,2.5002 -12.83138,-0.0528 -25.38849,1.65419 -38.32283,0.99465 -10.4688,-0.74494 -20.85922,-1.57686 -31.32807,-2.52538 -15.90241973,-3.41984 -30.45823,-4.72714 -46.46702,-9.59645 -14.88759,-1.20788 -29.22004,-5.70169 -44.39333,-5.05076 -9.93156,0.54071 -19.636956,-2.6013 -29.347805,0 -13.61524,-0.4982 -26.89601,2.1652 -39.39595,7.07107 -14.15963,3.80258 -24.98671,14.74178 -32.32488,21.2132 -4.74042,7.99484 -15.81349,17.06344 -14.14214,29.22769 -1.4162,7.8695 2.57891,14.04271 6.06092,19.25963 7.06107,9.37468 16.32202,16.60259 26.731,22.38582 12.34789,6.08099 25.22665,10.88645 38.73275,14.7846 15.6864,3.31531 21.421189,4.48174 36.561655,7.27629 18.17295,1.19032 36.15788,3.69385 54.5082,3.03046 16.40666,0.61757 32.4648003,-1.63382 48.52736,-4.04061 16.76557,-2.27441 33.33005,-6.23036 49.49747,-11.11167 13.6586,-4.65137 30.875155,-7.14478 43.012215,-11.1158 11.18876,-5.58261 24.15069,-4.64949 35.77969,-9.08726 15.36719,-2.16827 31.60218,-3.8011 46.48315,1.97625 14.86733,5.71074 29.45627,12.07321 45.53669,11.23023 27.92051,-3.5172 42.76586,-45.25338 46.37106,-65.73441 z"
       id="path5366-4"
       inkscape:connector-curvature="0"
       sodipodi:nodetypes="cccccccccccccccccccccccccccc" />
    <path
       style="fill:none;stroke:url(#pattern5955);stroke-width:1px;stroke-linecap:butt;stroke-linejoin:miter;stroke-opacity:1"
       d="m 223.62498,606.31445 c -6.28198,0.14951 -12.72713,0.88916 -18.78125,1.53125 -16.11385,2.91342 -33.23615,5.58727 -48.125,9.96875 -14.07373,2.63571 -28.13264,4.5414 -42.28125,6.75 -2.97058,-0.0575 -17.169634,1.64279 -24.281254,2.5 -12.83138,-0.0528 -25.40941,1.65954 -38.34375,1 -10.4688,-0.74494 -20.84365,-1.58273 -31.3125,-2.53125 -15.90242,-3.41984 -30.45996,-4.72444 -46.46875,-9.59375 -14.88759,-1.20788 -29.23296,-5.71343 -44.40625,-5.0625 -9.93156,0.54071 -19.6329,-2.6013 -29.34375,0 -13.615236,-0.4982 -26.875056,2.18788 -39.374996,7.09375 -14.15963,3.80258 -25.00558,14.74733 -32.34375,21.21875 -3.95035,6.66237 -12.29427,14.05122 -14,23.375 l 0,7.5 478.15625,0 c 0.01,-0.0524 0.0217,-0.10379 0.0312,-0.15625 l 0,-1.6875 c -1.04736,-21.67517 -18.40964,-58.15957 -33.84375,-59.34375 -7.32773,-2.55066 -16.04287,-1.97602 -24.25,-2.03125 -3.54686,-0.49346 -7.26206,-0.62095 -11.03125,-0.53125 z"
       id="path5366-9"
       inkscape:connector-curvature="0" />
    <path
       style="fill:none;stroke:url(#pattern5957);stroke-width:1px;stroke-linecap:butt;stroke-linejoin:miter;stroke-opacity:1"
       d="m 793.03176,713.45869 c 5.31018,-11.79285 0.36405,-21.93557 -8.08122,-28.28427 -9.02328,-3.85059 -14.24861,-9.50035 -25.25382,-10.10153 -7.32773,-2.55066 -16.03653,-1.96507 -24.24366,-2.0203 -9.45829,-1.31589 -20.11291,-0.0172 -29.7995,1.01015 -16.11385,2.91342 -33.23161,5.58543 -48.12046,9.96691 -14.07373,2.63571 -28.13111,4.53269 -42.27972,6.74129 -2.97058,-0.0575 -17.19013,1.64299 -24.30175,2.5002 -12.83138,-0.0528 -25.38849,1.65419 -38.32283,0.99465 -10.4688,-0.74494 -20.85922,-1.57686 -31.32807,-2.52538 -15.90242,-3.41984 -30.45823,-4.72714 -46.46702,-9.59645 -14.88759,-1.20788 -29.22004,-5.70169 -44.39333,-5.05076 -9.93156,0.54071 -19.63696,-2.6013 -29.34781,0 -13.61524,-0.4982 -26.89601,2.1652 -39.39595,7.07107 -14.15963,3.80258 -24.98671,14.74178 -32.32488,21.2132 -4.74042,7.99484 -15.81349,17.06344 -14.14214,29.22769 -1.4162,7.8695 2.57891,14.04271 6.06092,19.25963 7.06107,9.37468 16.32202,16.60259 26.731,22.38582 12.34789,6.08099 25.22665,10.88645 38.73275,14.7846 15.6864,3.31531 21.42119,4.48174 36.56166,7.27629 18.17295,1.19032 36.15788,3.69385 54.5082,3.03046 16.40666,0.61757 32.4648,-1.63382 48.52736,-4.04061 16.76557,-2.27441 33.33005,-6.23036 49.49747,-11.11167 13.6586,-4.65137 30.87515,-7.14478 43.01221,-11.1158 11.18876,-5.58261 24.15069,-4.64949 35.77969,-9.08726 15.36719,-2.16827 31.60218,-3.8011 46.48315,1.97625 14.86733,5.71074 29.45627,12.07321 45.53669,11.23023 27.92051,-3.5172 42.76586,-45.25338 46.37106,-65.73441 z"
       id="path5366-4-3"
       inkscape:connector-curvature="0"
       sodipodi:nodetypes="cccccccccccccccccccccccccccc" />
  </g>
</svg>
